<mxfile host="app.diagrams.net" modified="2021-06-23T00:30:28.851Z" agent="5.0 (Macintosh; Intel Mac OS X 10_15_4) AppleWebKit/605.1.15 (KHTML, like Gecko) Version/13.1 Safari/605.1.15" etag="kG_ifo_7PuN38d6pu-dw" version="13.9.9" type="github">
  <diagram name="Page-1" id="9f46799a-70d6-7492-0946-bef42562c5a5">
    <mxGraphModel dx="1424" dy="819" grid="1" gridSize="10" guides="1" tooltips="1" connect="1" arrows="1" fold="1" page="1" pageScale="1" pageWidth="1100" pageHeight="850" background="#ffffff" math="0" shadow="0">
      <root>
        <mxCell id="0" />
        <mxCell id="1" parent="0" />
        <mxCell id="xU7Hf9NUd1Yovvoh3ul6-74" value="" style="rounded=1;whiteSpace=wrap;html=1;labelBackgroundColor=#FF8000;fillColor=#f8cecc;strokeColor=#b85450;dashed=1;perimeterSpacing=6;strokeWidth=5;opacity=60;" parent="1" vertex="1">
          <mxGeometry x="235" y="1240" width="630" height="1190" as="geometry" />
        </mxCell>
        <mxCell id="xU7Hf9NUd1Yovvoh3ul6-71" value="" style="rounded=1;whiteSpace=wrap;html=1;labelBackgroundColor=#FF8000;fillColor=#ffe6cc;strokeColor=#d79b00;dashed=1;perimeterSpacing=6;strokeWidth=5;opacity=60;" parent="1" vertex="1">
          <mxGeometry x="244.75" y="10" width="630" height="1190" as="geometry" />
        </mxCell>
        <mxCell id="xU7Hf9NUd1Yovvoh3ul6-4" value="syft-sftp-replica/micron" style="outlineConnect=0;fontColor=#232F3E;gradientColor=#60A337;gradientDirection=north;fillColor=#277116;strokeColor=#ffffff;dashed=0;verticalLabelPosition=bottom;verticalAlign=top;align=center;html=1;fontSize=12;fontStyle=0;aspect=fixed;shape=mxgraph.aws4.resourceIcon;resIcon=mxgraph.aws4.s3;" parent="1" vertex="1">
          <mxGeometry x="520.75" y="180" width="78" height="78" as="geometry" />
        </mxCell>
        <mxCell id="xU7Hf9NUd1Yovvoh3ul6-5" value="datalake-sftp-instrument-xml-parser-create" style="outlineConnect=0;dashed=0;verticalLabelPosition=bottom;verticalAlign=top;align=center;html=1;shape=mxgraph.aws3.lambda_function;fillColor=#F58534;gradientColor=none;" parent="1" vertex="1">
          <mxGeometry x="365.75" y="270" width="69" height="72" as="geometry" />
        </mxCell>
        <mxCell id="xU7Hf9NUd1Yovvoh3ul6-6" value="datalake-sot-csv-copy-create" style="outlineConnect=0;dashed=0;verticalLabelPosition=bottom;verticalAlign=top;align=center;html=1;shape=mxgraph.aws3.lambda_function;fillColor=#F58534;gradientColor=none;" parent="1" vertex="1">
          <mxGeometry x="675.75" y="270" width="69" height="72" as="geometry" />
        </mxCell>
        <mxCell id="xU7Hf9NUd1Yovvoh3ul6-7" value="XML" style="endArrow=classic;html=1;" parent="1" source="xU7Hf9NUd1Yovvoh3ul6-4" target="xU7Hf9NUd1Yovvoh3ul6-5" edge="1">
          <mxGeometry width="50" height="50" relative="1" as="geometry">
            <mxPoint x="535.75" y="510" as="sourcePoint" />
            <mxPoint x="585.75" y="460" as="targetPoint" />
          </mxGeometry>
        </mxCell>
        <mxCell id="xU7Hf9NUd1Yovvoh3ul6-8" value="CSV" style="endArrow=classic;html=1;" parent="1" source="xU7Hf9NUd1Yovvoh3ul6-4" target="xU7Hf9NUd1Yovvoh3ul6-6" edge="1">
          <mxGeometry width="50" height="50" relative="1" as="geometry">
            <mxPoint x="535.75" y="510" as="sourcePoint" />
            <mxPoint x="585.75" y="460" as="targetPoint" />
          </mxGeometry>
        </mxCell>
        <mxCell id="xU7Hf9NUd1Yovvoh3ul6-9" value="sftp-xml-partition-parquet" style="outlineConnect=0;fontColor=#232F3E;gradientColor=#945DF2;gradientDirection=north;fillColor=#5A30B5;strokeColor=#ffffff;dashed=0;verticalLabelPosition=bottom;verticalAlign=top;align=center;html=1;fontSize=12;fontStyle=0;aspect=fixed;shape=mxgraph.aws4.resourceIcon;resIcon=mxgraph.aws4.glue;" parent="1" vertex="1">
          <mxGeometry x="356.75" y="510" width="78" height="78" as="geometry" />
        </mxCell>
        <mxCell id="xU7Hf9NUd1Yovvoh3ul6-10" value="syft-query-results-bucket/sftp/{table}" style="outlineConnect=0;fontColor=#232F3E;gradientColor=#60A337;gradientDirection=north;fillColor=#277116;strokeColor=#ffffff;dashed=0;verticalLabelPosition=bottom;verticalAlign=top;align=center;html=1;fontSize=12;fontStyle=0;aspect=fixed;shape=mxgraph.aws4.resourceIcon;resIcon=mxgraph.aws4.s3;" parent="1" vertex="1">
          <mxGeometry x="356.75" y="390" width="78" height="78" as="geometry" />
        </mxCell>
        <mxCell id="xU7Hf9NUd1Yovvoh3ul6-11" value="" style="endArrow=classic;html=1;" parent="1" source="xU7Hf9NUd1Yovvoh3ul6-5" target="xU7Hf9NUd1Yovvoh3ul6-10" edge="1">
          <mxGeometry width="50" height="50" relative="1" as="geometry">
            <mxPoint x="575.75" y="510" as="sourcePoint" />
            <mxPoint x="625.75" y="460" as="targetPoint" />
          </mxGeometry>
        </mxCell>
        <mxCell id="xU7Hf9NUd1Yovvoh3ul6-12" value="" style="endArrow=classic;html=1;" parent="1" source="xU7Hf9NUd1Yovvoh3ul6-10" target="xU7Hf9NUd1Yovvoh3ul6-9" edge="1">
          <mxGeometry width="50" height="50" relative="1" as="geometry">
            <mxPoint x="575.75" y="510" as="sourcePoint" />
            <mxPoint x="625.75" y="460" as="targetPoint" />
          </mxGeometry>
        </mxCell>
        <mxCell id="xU7Hf9NUd1Yovvoh3ul6-13" value="sot-enrichment" style="outlineConnect=0;fontColor=#232F3E;gradientColor=#945DF2;gradientDirection=north;fillColor=#5A30B5;strokeColor=#ffffff;dashed=0;verticalLabelPosition=bottom;verticalAlign=top;align=center;html=1;fontSize=12;fontStyle=0;aspect=fixed;shape=mxgraph.aws4.resourceIcon;resIcon=mxgraph.aws4.glue;" parent="1" vertex="1">
          <mxGeometry x="671.25" y="510" width="78" height="78" as="geometry" />
        </mxCell>
        <mxCell id="xU7Hf9NUd1Yovvoh3ul6-14" value="syft-query-results-bucket/sot/unpivot" style="outlineConnect=0;fontColor=#232F3E;gradientColor=#60A337;gradientDirection=north;fillColor=#277116;strokeColor=#ffffff;dashed=0;verticalLabelPosition=bottom;verticalAlign=top;align=center;html=1;fontSize=12;fontStyle=0;aspect=fixed;shape=mxgraph.aws4.resourceIcon;resIcon=mxgraph.aws4.s3;" parent="1" vertex="1">
          <mxGeometry x="671.25" y="390" width="78" height="78" as="geometry" />
        </mxCell>
        <mxCell id="xU7Hf9NUd1Yovvoh3ul6-15" value="" style="endArrow=classic;html=1;" parent="1" source="xU7Hf9NUd1Yovvoh3ul6-6" target="xU7Hf9NUd1Yovvoh3ul6-14" edge="1">
          <mxGeometry width="50" height="50" relative="1" as="geometry">
            <mxPoint x="575.75" y="510" as="sourcePoint" />
            <mxPoint x="625.75" y="460" as="targetPoint" />
          </mxGeometry>
        </mxCell>
        <mxCell id="xU7Hf9NUd1Yovvoh3ul6-16" value="" style="endArrow=classic;html=1;" parent="1" source="xU7Hf9NUd1Yovvoh3ul6-14" target="xU7Hf9NUd1Yovvoh3ul6-13" edge="1">
          <mxGeometry width="50" height="50" relative="1" as="geometry">
            <mxPoint x="575.75" y="510" as="sourcePoint" />
            <mxPoint x="625.75" y="460" as="targetPoint" />
          </mxGeometry>
        </mxCell>
        <mxCell id="xU7Hf9NUd1Yovvoh3ul6-17" value="&lt;span style=&quot;color: rgb(0 , 0 , 0) ; font-family: &amp;#34;helvetica neue&amp;#34; , &amp;#34;roboto&amp;#34; , &amp;#34;arial&amp;#34; , sans-serif ; font-size: 14px ; text-align: left ; background-color: rgb(237 , 255 , 255)&quot;&gt;sot-dashboard-join-spark&lt;/span&gt;" style="outlineConnect=0;fontColor=#232F3E;gradientColor=#945DF2;gradientDirection=north;fillColor=#5A30B5;strokeColor=#ffffff;dashed=0;verticalLabelPosition=bottom;verticalAlign=top;align=center;html=1;fontSize=12;fontStyle=0;aspect=fixed;shape=mxgraph.aws4.resourceIcon;resIcon=mxgraph.aws4.glue;" parent="1" vertex="1">
          <mxGeometry x="505.75" y="780" width="78" height="78" as="geometry" />
        </mxCell>
        <mxCell id="xU7Hf9NUd1Yovvoh3ul6-18" value="syft-query-results-bucket/sot/sot_dashboard" style="outlineConnect=0;fontColor=#232F3E;gradientColor=#60A337;gradientDirection=north;fillColor=#277116;strokeColor=#ffffff;dashed=0;verticalLabelPosition=bottom;verticalAlign=top;align=center;html=1;fontSize=12;fontStyle=0;aspect=fixed;shape=mxgraph.aws4.resourceIcon;resIcon=mxgraph.aws4.s3;" parent="1" vertex="1">
          <mxGeometry x="505.75" y="920" width="78" height="78" as="geometry" />
        </mxCell>
        <mxCell id="xU7Hf9NUd1Yovvoh3ul6-19" value="syft-query-results-bucket/sftp/{table}-partitioned" style="outlineConnect=0;fontColor=#232F3E;gradientColor=#60A337;gradientDirection=north;fillColor=#277116;strokeColor=#ffffff;dashed=0;verticalLabelPosition=bottom;verticalAlign=top;align=center;html=1;fontSize=12;fontStyle=0;aspect=fixed;shape=mxgraph.aws4.resourceIcon;resIcon=mxgraph.aws4.s3;" parent="1" vertex="1">
          <mxGeometry x="352.25" y="647" width="78" height="78" as="geometry" />
        </mxCell>
        <mxCell id="xU7Hf9NUd1Yovvoh3ul6-20" value="syft-query-results-bucket/sot/sot_partitioned_enriched" style="outlineConnect=0;fontColor=#232F3E;gradientColor=#60A337;gradientDirection=north;fillColor=#277116;strokeColor=#ffffff;dashed=0;verticalLabelPosition=bottom;verticalAlign=top;align=center;html=1;fontSize=12;fontStyle=0;aspect=fixed;shape=mxgraph.aws4.resourceIcon;resIcon=mxgraph.aws4.s3;" parent="1" vertex="1">
          <mxGeometry x="666.75" y="647" width="78" height="78" as="geometry" />
        </mxCell>
        <mxCell id="xU7Hf9NUd1Yovvoh3ul6-21" value="micron_processed.sot_dashboard&lt;br&gt;used in sot.dashboard.dev.syft.digital" style="outlineConnect=0;fontColor=#232F3E;gradientColor=#945DF2;gradientDirection=north;fillColor=#5A30B5;strokeColor=#ffffff;dashed=0;verticalLabelPosition=bottom;verticalAlign=top;align=center;html=1;fontSize=12;fontStyle=0;aspect=fixed;shape=mxgraph.aws4.resourceIcon;resIcon=mxgraph.aws4.athena;" parent="1" vertex="1">
          <mxGeometry x="505.75" y="1060" width="78" height="78" as="geometry" />
        </mxCell>
        <mxCell id="xU7Hf9NUd1Yovvoh3ul6-22" value="" style="endArrow=classic;html=1;fontColor=#232F3E;" parent="1" source="xU7Hf9NUd1Yovvoh3ul6-9" target="xU7Hf9NUd1Yovvoh3ul6-19" edge="1">
          <mxGeometry width="50" height="50" relative="1" as="geometry">
            <mxPoint x="575.75" y="660" as="sourcePoint" />
            <mxPoint x="625.75" y="610" as="targetPoint" />
          </mxGeometry>
        </mxCell>
        <mxCell id="xU7Hf9NUd1Yovvoh3ul6-23" value="" style="endArrow=classic;html=1;fontColor=#232F3E;" parent="1" source="xU7Hf9NUd1Yovvoh3ul6-20" target="xU7Hf9NUd1Yovvoh3ul6-17" edge="1">
          <mxGeometry width="50" height="50" relative="1" as="geometry">
            <mxPoint x="575.75" y="660" as="sourcePoint" />
            <mxPoint x="625.75" y="610" as="targetPoint" />
          </mxGeometry>
        </mxCell>
        <mxCell id="xU7Hf9NUd1Yovvoh3ul6-24" value="" style="endArrow=classic;html=1;fontColor=#232F3E;" parent="1" source="xU7Hf9NUd1Yovvoh3ul6-19" target="xU7Hf9NUd1Yovvoh3ul6-17" edge="1">
          <mxGeometry width="50" height="50" relative="1" as="geometry">
            <mxPoint x="575.75" y="660" as="sourcePoint" />
            <mxPoint x="625.75" y="610" as="targetPoint" />
          </mxGeometry>
        </mxCell>
        <mxCell id="xU7Hf9NUd1Yovvoh3ul6-25" value="" style="endArrow=classic;html=1;fontColor=#232F3E;" parent="1" source="xU7Hf9NUd1Yovvoh3ul6-13" target="xU7Hf9NUd1Yovvoh3ul6-20" edge="1">
          <mxGeometry width="50" height="50" relative="1" as="geometry">
            <mxPoint x="575.75" y="660" as="sourcePoint" />
            <mxPoint x="625.75" y="610" as="targetPoint" />
          </mxGeometry>
        </mxCell>
        <mxCell id="xU7Hf9NUd1Yovvoh3ul6-26" value="" style="endArrow=classic;html=1;fontColor=#232F3E;" parent="1" source="xU7Hf9NUd1Yovvoh3ul6-17" target="xU7Hf9NUd1Yovvoh3ul6-18" edge="1">
          <mxGeometry width="50" height="50" relative="1" as="geometry">
            <mxPoint x="575.75" y="880" as="sourcePoint" />
            <mxPoint x="625.75" y="830" as="targetPoint" />
          </mxGeometry>
        </mxCell>
        <mxCell id="xU7Hf9NUd1Yovvoh3ul6-27" value="" style="endArrow=classic;html=1;fontColor=#232F3E;" parent="1" source="xU7Hf9NUd1Yovvoh3ul6-18" target="xU7Hf9NUd1Yovvoh3ul6-21" edge="1">
          <mxGeometry width="50" height="50" relative="1" as="geometry">
            <mxPoint x="575.75" y="1070" as="sourcePoint" />
            <mxPoint x="625.75" y="1020" as="targetPoint" />
          </mxGeometry>
        </mxCell>
        <mxCell id="xU7Hf9NUd1Yovvoh3ul6-30" value="customer data&lt;br&gt;.xml, SOT.csv" style="edgeStyle=orthogonalEdgeStyle;rounded=0;orthogonalLoop=1;jettySize=auto;html=1;" parent="1" source="xU7Hf9NUd1Yovvoh3ul6-29" target="xU7Hf9NUd1Yovvoh3ul6-4" edge="1">
          <mxGeometry relative="1" as="geometry" />
        </mxCell>
        <mxCell id="xU7Hf9NUd1Yovvoh3ul6-29" value="" style="shape=image;verticalLabelPosition=bottom;labelBackgroundColor=#ffffff;verticalAlign=top;aspect=fixed;imageAspect=0;image=data:image/png,iVBORw0KGgoAAAANSUhEUgAAAMAAAAB+CAYAAAByHB4CAAABQWlDQ1BJQ0MgUHJvZmlsZQAAKJFjYGDiSSwoyGFhYGDIzSspCnJ3UoiIjFJgf8rAxiDOwMXAzKCZmFxc4BgQ4ANUwgCjUcG3awyMIPqyLsisJVefTH17++6RWpOqH+deyq/HVI8CuFJSi5OB9B8gTkguKCphYGCMAbKVy0sKQOwGIFukCOgoIHsKiJ0OYa8AsZMg7D1gNSFBzkD2BSBbIDkjMQXIfgBk6yQhiacjsaH2ggCbkYm5QTgBh5IKSlIrSkC0c35BZVFmekaJgiMwdFIVPPOS9XQUjAyMDBkYQGENUf35BjgMGcU4EGKZLgwMZo8ZGJhSEWLJWxkYdoowMAhuRYhp3gV6h4uBYb9QQWJRItwBjN9YitOMjSBs7u0MDKzT/v//DPQmuyYDw9/r////3v7//99lDAzMtxgYDnwDAKhOYGwdZooDAAAAYmVYSWZNTQAqAAAACAACARIAAwAAAAEAAQAAh2kABAAAAAEAAAAmAAAAAAADkoYABwAAABIAAABQoAIABAAAAAEAAADAoAMABAAAAAEAAAB+AAAAAEFTQ0lJAAAAU2NyZWVuc2hvdBLFQIIAAAI9aVRYdFhNTDpjb20uYWRvYmUueG1wAAAAAAA8eDp4bXBtZXRhIHhtbG5zOng9ImFkb2JlOm5zOm1ldGEvIiB4OnhtcHRrPSJYTVAgQ29yZSA1LjQuMCI+CiAgIDxyZGY6UkRGIHhtbG5zOnJkZj0iaHR0cDovL3d3dy53My5vcmcvMTk5OS8wMi8yMi1yZGYtc3ludGF4LW5zIyI+CiAgICAgIDxyZGY6RGVzY3JpcHRpb24gcmRmOmFib3V0PSIiCiAgICAgICAgICAgIHhtbG5zOmV4aWY9Imh0dHA6Ly9ucy5hZG9iZS5jb20vZXhpZi8xLjAvIgogICAgICAgICAgICB4bWxuczp0aWZmPSJodHRwOi8vbnMuYWRvYmUuY29tL3RpZmYvMS4wLyI+CiAgICAgICAgIDxleGlmOlVzZXJDb21tZW50PlNjcmVlbnNob3Q8L2V4aWY6VXNlckNvbW1lbnQ+CiAgICAgICAgIDxleGlmOlBpeGVsWERpbWVuc2lvbj4xOTI8L2V4aWY6UGl4ZWxYRGltZW5zaW9uPgogICAgICAgICA8ZXhpZjpQaXhlbFlEaW1lbnNpb24+MTI2PC9leGlmOlBpeGVsWURpbWVuc2lvbj4KICAgICAgICAgPHRpZmY6T3JpZW50YXRpb24+MTwvdGlmZjpPcmllbnRhdGlvbj4KICAgICAgPC9yZGY6RGVzY3JpcHRpb24+CiAgIDwvcmRmOlJERj4KPC94OnhtcG1ldGE+CnDlvC4AADipSURBVHgB7Z1nkB3HkecLGAAzmIEdeMINvHcEQMIQoAFBKxqRFL0giaSkPe3F3X66+3IfLuJM3F3sXdzGbsTGSauVRIkEPQEStCJBT4IECEd47703YzAw9/9lT/f0vHnzuhoEJBLTFRjMm35lMrMys7KysrNaXFBxWcko0Ewp0DLEGzk4f/68SyMP58+rTQr5Cca4cPnHEEy+Um04CA/fAroXQ6c0dK2fC0+oLgImGyMFnS4Wb+jrS91gDH/+qOeni6dTJABnz51zp6trXO3Zs14MyuDVZ864mjO1Ygg/FGvPnnOVNTXu7LnzXhCfk0BWCqaaGv8xagR/Vc0ZR9ukEuIAHj716e+scDhdBZ3OpaNTrXBghj3KGeFQWQ1M5zxqO3fuAnQ6o/nwH6OmNqATwuxTgKVSdD3jjbcz/mC+fceABwP+EN4epDI6qX/fuQvpVKO5YO4pkQDAxGdEFF/mpHGtAAZoXxkH0FqNcV4T5lOAESRrz0kofSiiTs9JuIw5PYUS+BkjJEgSXDACzOPLnJAZeBAc7zGEAzD5Khb6pb7NhaeQUTcNTCF/+OINB4M3POWLB4JC/XO2aiRLgM218VNyXeYVOsH8Z89i6QQz3UIP7SPaiQ6LWrZwLVtGchHUauJ/6rsWkqIWLV0L/U4qIAgxWha1VJvkBoDGGC1UF5g8mpi2AaOWwoN2hQqIm/ZQgyLrv3B9+gJ+2vjSCVioDyiGQyGA6r6DTufUsJUnTNAJxQVNoW0yFgFMwAYeSXQCLBsDvBnDkz8CZZqCtgII3OEn5i+pQFfmoxU4J8x1hEMdnYrUhhIJgP2V/ZdRoJlRwE/VNzOiZOg2HwpkAtB85jrDNA8FMgHIQ5TsUfOhQCYAzWeuM0zzUCATgDxEyR41HwpkAtB85jrDNA8FMgHIQ5TsUfOhQCQAwWHKOTtY8EWfgwh+OFDyKRy2cTjCWD6FatRPNUbdQZXvGBEOfiBZOAOnqL6nm+DJGBzw+Bb6vlg6+Y9RR1fvuQhgSos3B5m+cxEexvqGjFwcnc7ZfIR0igSAY+tTVdU6iq6Pkwgr5fsN3aoUf0Lcje/kEgZxurpak+sX40LIBPUZ44InA3HUTfwQTJdUDAf17Vuf/oiVOlkpOp31oxOTSf9VijfypRN9B3RKxgGYiHFh7qpTzAVxQ8DlCxMCeToNfwgu4npOaf4IbfApIQ/W1hI2ktyCuTY6ecw1vcETRiebi2CASACQ0gsC1GPcOsio61+bRjYG46RoZnVpUzdq0q8AKt/6ASyBhvIcgWop4AFecLCfJODD761+gEn4qOBv4EkLkzpM1SaCqSAk9V8aTAHe+r/+eaFPdXgUqtLoO7XxL6KTdIo1qYu0aBAKwRceIRXReAydHLERVbcPadukhanhaMl/pYWHHtPClLa+jaH/0tA27Rh/EbxBROW7hEcunRoIQABu9n9GgeZDgcgEaj4oZ5hmFKinQCYA9bTIPjVDCmQC0AwnPUO5ngKZANTTIvvUDCnQqhnifEWhfPzESXe6stJ17NDelbZt6/Vm1BVFgG+JTCYA35KAf83me/cdcG+/95HbvHWbmzButLt++rWuS3nnTAhSTEomACmI9V2qunf/AfenF151z7003+3bt899+GmFO3X6tLvz1lmuS+dOmRB4TlaDPUCqk0ENwKECP76FqsGpq2+LixgjLUxp69fhkALt9HQymJoeYc/e/e6ZF+a551+e7w4dPuyKS0rc9u073G+ffs69/vZ77vCRo4l0trlueoi8E5SeP4IT6rydNfEwDX8E/JcOiVy8IwEgPoeYG8sL1ARw8ccMTiwGcSu+wUuk4SAmxj8W6ILB5BufBHzAT64i31ggcCAvkG+QF7CTg4e4FR/SQ/CaWvLp+MUOgcNZ4WC5jRR/k1v27T/o/vT8q+7ZF191Bw4ecgMq+rmp105yPXp0d1u3bXO//f2z7s13F7ojx44VFIKATv54E9QW8IdfnA60qadtYzxy8eLvkAd9+QMcjE4pYoGC3Eb1c9FAAMLEWKay8kHY4JkmVozGDzFEPgWmqSbhU56JzdcewUJgqsWkvgxKfpwqMZxfAFY9Dr65ikwAFORFriIfOkGZaiX2OnOGfEiedKpTRrlCDPM/K5PnhVdfd4cOHXYV/fu5nzz6oPtP/+Hfu/vuudP16tnTbdux0/32j89LCD50R44eb1IIahRwZom0UjAPzIZwEqWUWISrBdwJd7+5QPDPW0BfPG9PoXGMn8QfuXRqqk0QmKhkbgrKDFeaov+sQgNyyrRp3cq1adXKK+8LeVjIx9Ja9X1z6pDrpbXGoI1PHhdiSKgLXL5jUM/G8MgVo4w4AQ7q3ze3jNEJmPTjlx+HMYqEQ5HV98GbfsGhVauiiE679+6Tvf+am/viPHfw4EE3sKLCPTHnYXfPHbNd39693JBBA9xZMfNumUc7JARbt+90ZaWlro++a9u2JOqHuaaEdPLFG7jbCJ5wvoNeCvxv/AHerf1pa/zRWmP45QUitw/wQF8fuhoOmodw7vg7iwUqMIffla/Y8D4992X3/CuvmeYfOKDCPTXnEfeD22a5Th07RGBi+//RNsbz3O5de1y/fn3dUz991N11283ZxjiiUsMP0QrQ8HH213eFAmx4n31xfsT82PxPivnvuv3mBswPvJwDDB5YYekFd0oAdu7a7bbv2O3alZU1uRJ8V/D8a8GRCcBfi/Ie4+6Rn58N73Mvy+yRzd9fGv3JHz/i7hbzd+7UMW8PCAHmEHuznbv3uh07d7kt23a4snZlZirlM4fydtRMHmYC8B2d6MjVGZo9Ff3dTx970Gz+cvn5C5WyUq0EgyrM2bBzz163S0KwdfsuV1a3EpTm2RMU6u9K/i4TgO/g7Jrmf+EV8/Oj+fv17SPmf8j94PZZrqNsfjbihTZ9eMxKSoq1ElRoJTgjU2iP27V7t1aCna59u3ZmDmVCEEx8dhL8HROAQ4ePyOR5zb3wygJ5ew7JE9TKDRrQ37xCi75aag7I7t26uJFDB7sOiv/JFQQ2wmvXb9I5wHF7E6t7166uZ48ecokec9u2bXf/+sfnrE0hM+o7RpLLCk4mADnkxad85Mgxd/LUqchXnFPF6892srnLO3UyxvVqUFdpybKVbt6Ct93+AweMgfFXL1+5yq1asy6Cp/dVvdx//LtfuSmTJ5iAhP2j+T9dtMT9+vfPuL3aPFMQkGpeTNfZAqnTN27abCvLyGFD3MTxoz1dueEIV97vTABy5nSP/O3zFrzr1otRzungLtULreqLsy5MlD69r3K3zb7BjRKjFRe3yRml6T85m0BwTnVFAKlHznylJBEsZ2TOEPmJlmeDO+nqsQ0EgEOqb1avdZs3b3VVVVXa+LYzHzlnCsGmuYVlgSguLrEDLfr1TPXfNMDf828yAciZwK+Xr3JzX5qnsILtXie9Oc2jM1K8Mbu0Af3VU3PciKGDXJEOa3zKlGuuRm27LYrtOasTy1AA0eQbNm52Cz/61J08eSroKudA9oJSHhAeQOnatYubPesG17tnj6gPgGuhw6Zhgwe5YUMGCqYoECDorxn+HwkA2oDln9NaTgl9ShCzQf3Cm7KwL3LQBFrH76SP5Z98NOre+xQVHGjne3KMaQAfhfWxwasV6lCiALNB8ql3KS83mtTjUHeLiWiEpg8ZNPye3/sPHLLgtPcWfuR69+rpOrS/z/W+qqcXXYnrv/nG6yy8BAaN2/gL3nnfLVq81PEOQLyAL3hDKwphHYRF33/37W7S+DEN+gjbEY5CmxDv8HlTv8O58L0Zh36MP0TcXDyaGiPkQeobbZuqWPfc5lp869t/iAN904YSCcBZxbZw+VuJluuSNq3zEq1uXPtFZ8SGMEFt1Yarc5IKcTr4p9sWF7s2LaOhm2xG7AaJj7gqqFRejTgzNNWI/mGE0pI2tvw3VY/nIQ6iofXfqqhOkDVuiWB87MH73M03XNfAhCGmh4RSbdU/x/z50F789Qr3z799WubIGplTb7mO8tnfccuNrlweHMMBiVPRTUB2eMVGN164J4tAsjIJYWuFH4QFeKMlJnyo3zACc2dxOnV9U/U8wq0P+eiGd4jQCehKKEFSIT6HuYA3ir34I0icBlOXlfqNwepFcq+2ggmzLYmjzmiuoVWZ3LqEjSQV6HRKSc3atClybVsWm5DVUx6pEKPlm9B8HWOrIkn5iJuvPs9oQ33fMWgDTD7agLoU6gb1k8gX1G/BfVTiqtzamAodOrRz3WVKxG34IACrVgKimJUmGGf2jTPcQa0kx+SJ4SDqOZlUe/ftdz27dzUaGI+KMen31lkzXb8+vRvQMcDBbxUGC2jKyk27XDwCLBv/3wK6ChDfFswZY/jPN/uLABrvMcCBMcCpMciNnjBHNoZPZfqETlJyAX8E3UUCQFBR6zKC1BqNk/+B6qGhLui3b5NiaUwC23yJCPO3s9f88oOQ72lxmzauGIb2QIQ6rBTGBnmQQHvlRj6iLdu1bWia5MLRRhryLsXp7NYe4KV5CxSOsNM9+/yeiCGoj2Zup03qQIU2IADxwsqSnk4lrqalVuQ6pov3l+8zmpziQyfqoWHbF/m/chnQtpim3mMYD4q+vjDBT/z41oefOuiQMF4/EgCb/zxMYBg09Z/qp2pi9VO1ELBNDZ7/eVDfv1GcGPl7bPjUt39s8EceuEdLbqVb/PVyVyOzKY4M5l27slIzgRiBvKn46tl/4ELt2L6917IeQgceaWiVFm/GSdsmdf1gkBClxN9p+w+6b8gbkQAkjpZVSE0BtPuvnpzj1l43zdyXDdXFBdm5rR2HXEzkUTH/S/PfcJu2bHPXTrra3XLTDJcU8pAaoKxBIwpkAtCIJJf2AbH6/CSVo8ePu3fe+9AtWbrcXJkccqUVAPYzoX7jN3Z+Q6FLgqL5fZ8JgOec4y7F/VhZWWX2eyp7I98Y2oCygcNUIm4H5m0tu7yN9jDYwr7LO3uJY8dPaIWp0kFZrV6MrzRPER6Vg4eO2FkEfREg1yGlWZUP7CvtWSYAnjOKafLuwo/FUPslAH7vuBbqWnyrN7WK3aM/ulcHUwMLVS34Hb72hZ984ZYt/0b3NVS7lavXmTuU0+KX5r2hbBFf2KrQu1cvvUMwy1X06yPB8/cwFRz8CvgyEwDPSfzzh58q68JcZWE44q2dC3WN5m6vze51UyZ/KwFgZfp80WI3/413LOYH5kbjHz9xwr3/4ce2WvHONoFzva/q4a7SyTArTlYCCmQC4MEJMOvBg4ddjQ5pCHHo37+vhRV/G/uaPsvK2poJ5AFCk1XwaQ8eOEBxQeMNvrjppK/cYQksIRlnlCjghAL8MI1K5CjOSkCBTAB8OUHcRChHZ72M8pNHf+TGjhzxrVYCzheID+rX56pv1Q+nyHfrxfgZ064x+BocOkkA/rzwE71V9rI7cfKEL6bNql4kAGgkTijNe4Dq8Chhm/jJWqFmVp/TR/XvMwTw0IaSaoyU9ek/rjn5O18BFg65BigdyZhRw7za0A8+/yS6BvQI6B5gnA+C+mfU5weTp3cvmTb6CVrX1+ET7wa00uFjbgnp6oM3bZkGOIQxfNuANyXt3PmOYfxUB08+3G3w2H9AQ5t4/xFl2EyRxyVMjZKEJLhVqT6dcRoXHnvHxmv0kTAC4oFKVN8ndgONS7wRfZe0buM1BrEhxLhw0snJX6ECDuTsYWKJb0mqD7LEk5yUp4VxaJNUIDjxLTAB3p2jCo84qGxu8UhPsZSFNxPCzCQxF8QCgX9TG1ZemVy9dqM8R62MOWvVBico+4pePbvLVAtSodCHVcgBlNw4fOeFt9qCNwnESClCfFIif6iNXdon/C1WLGEuAC/AW3SVwLYqSo5KYA7Am/g14sWSCviS1Iy0K+EJciQAHPvToTFB9LRQl8SonzVCIDRMYlKBiJx4kl9GUT5J1Y0ZgInwgwutYY3kMWB+BI2JSo72vWAEhEkDHBJAUtwHQkP/4GLaJFDdTTYEauoTfXhKzP+qNqu82VVdXYUqRa0aWrhXeXWRSWIuaIMGzZ1WhJVxyf62eOkKExDqwTwt1Fc3xS49Is/S5AljGsQw5QJIfSJCvfBWY+BiLgJBTp47CAVz0g6F1wiRXID0Nwm04A+LsfIYIuQnmNmnf+hElkHXIsjrhBBHrI526qijebRtknQHsMu3rFggeLIpLZWLI5KN9kjUtHUNi+Qb76CNIvD4jmHRiiIIYbvJBRyCDaHPCga3EvXarrTEBMyHTtjk7eq08T5p7Xff/0gCsMRetqG9heXqd4gjHpoeYuJO7csa0alTx452OIaLc+PmLW7Dps2GIkyGUPC7WFGsE/Sm17jRwwsKAFpZTTzpRIKyomgufPBGuNsRKyYI/ebCGU1blRH8iCcrefaYawTYl59YJTq2KzVaB4eEsXBoGKBlSw+xq4MLAMOY6mRQgxowca5GK9SWMXxCdeN9+BKDNheDA42AyU9gGo7Bu7xjR48Q8251R48cMbB7Kp3hUJ0DlCqLG+cLHFbdOHOaMXouow0fMsj98K7b3aq1601Ton126mX3zTqjqKqqFDO0dqO0OedcgXDuQiUNnegHWNLMBfybnj/Egx6WQYhXen5qjEO0AoSdZr99KIBeS186tG/nHrn/Hp0mV7u3//y+Xm08YptqPDg3XT/dtVfaEkKkCYbLx2zdupa7OY88oPaVZoJt2rzN/WHuixKArdKCRW7c2FGWNGvCmJGp30VOj82V0SKNQr4yMP4rYzF4YH/3y5896u649WZp+XJ7X2DegnfcylVrLYcnqQ7zMX8INpvbcoVP8Frk/Dff1SHYEvP/jx0zyv3yiR+7WTOnmwCF9bPfhSmQrQCF6XNZviUc4ckfP2R2+5t6zXHVmrXu17/7k/3NyzSsFE0VbP0Nm7YovcnzbsHbf7bVYNyYMe7nygE6Y+o1MqXaNtU0e56HApkA5CHKX+IRodI//8kjtuGDkdfIrv+XP8yV3VzkZmEOyQzKLTD/Rtn71ENwyBAxfuxo9zdPPO5m6nokAt6yko4CmQCko9clrT1AIRVPKsU5m983xNCr164z5sZ1Muv6aa59bCWA+TdvVWIr3QLz5rvvu0ptemH+X/zsMTsFzpj/4qYmE4CLo9slazWgv8whZXvGLcdKsPKb1ZbYCvdyuBLA/Ju2iPn/FDd7Rsvmf9wuxuMegKxcHAUyAbg4ul3SVgMrlMeflUAHQQjBKmWT+I2uOqLccN0Ud0D5Qbn1ZcFb77rTughv/Ngxpvmvn4bZkzH/t5mMTAC+DfUuYVs2xk/MeUjuzXPuLZk436xaLXPoWQu/Xrthk94W+8CdOnXajZO3B7OHK1Ez5v/2ExAJgB0rK7QBFxwbMQ4yChWtyjquDzKXcXSde2iTry35eohfJw7I5yCGo2uOxunbJ/6EMcMQAmBKOqyKcFA7YPIJ2sIcIY4GXNp4xJ9QH5g4dIO2heg0iMsvfvywnei+/ecPLM0hdwGfPHlSfdQqAG+kvD2PuZk5mj844ieMJTjoKTRGOC/ABGy+eAf8oblTSIcXfzAXohNjEGWQNBfARWgGIRoBDyZ76EkXCVy+/eejUzQKnZFciXgPQR3SqeBvgqNIREXHPgWBIakUQuBT6JeL++wWR88xgN//5sC6i9w0BmEEiUVcDExVCqhiopjcpEIN4PGlEynN2RPcNvsm5fPsZElyiV/B7MHbc6NMIrJJxAuwB3Sqv/0w/n2+zwTbVSkDhRfe6gDmrDT+0Nx54M1GHryBCyb1KcQOwR8BbZNbEFhp/OTZP3Ccrqq2QMNw7qIVAKkmPgRpMnWVMD4rhAUh6YOPxqE7JJvIPcbyKWhkYEJ7+I5hsUZoKc9YIOKTCDAj/iSxaOKBiQhK78vltJZSH3B8VhhgGDpogPuF/Pq8MslBFwFuP33sR/b2WD4/f0gnVlVfOhEseF7z4IW3YKJvsuExh4RgJBZVAW8YzW8u4I+WEX+wYiaV0CrwWV3oizguss7F6RQJAIO3KiocP9IAoDoEGzxL+AOA+fEt4cT61qeeb3QjdSEyk5SmwGBtlRUuYITklowRJqFKrh3UoE1wYvyYm8YdwN26WnwP1xvlK8TElEpRpClp6ES/xPW0LfIfQyikxhua+tIVmFDW0l/eJR+dUjT3HiereIkowPu7/GTl8lEgE4DLQFvs5dC2RnOiecLC80YmtNQlGpPS6Lvgsf0fLvWYFVE9NWSl9DV9Yt1lH0WBTAAuIRvwghD3cK1Zv9He/KJr8v6MHj7U9enTy14gWvHNWkuce6Fu4wYjF8ksxA16QgFuRxTrz2aN9whMKvS97VEkRIRDt1M8+7oNmy0Yjg02gsPld7xbzE+W8QGq+5dMAPxplVhz5er17unnXrI0JVyxxAYTT87DyhH60H0/sLeR/vjcy27Zim9Mg1siW0lAsV4cufuOWywt4mpdhUSCK3L8o+lZPRAG3kX+mVyk3DdA4Nz2nbvkwgwSaPESDMIRvAk2NhOCxJmqr5AJQD0tvtUnMrO9/NqbivNfaClTZkybYhdZ8w4wZhBaHVczadP3KFV63969XYVOgMkER0ZrGPu8mU5BBro1azfY+wIDB1S4/rolskyuz549usm3Xuu4OZ78RFePH2sb5JWr1ri39H4Bu/o+uoiDGKOs+FEgEwA/OiXWIv//Wpk+1fIzz7p+hvu7Xz3lBojBYVTuGuusOP/9Bw6brY4bbsq1E93jD93nunUpt2cEs3FOAoNz/9d///t/VNvD5vp87MEf2hti3FewaMkywXLB8hPdf8+div+fprQnr7jfKU7o62UrtDLslinU24QuEeisQrYHuFQ8ED/s4eDqhE5v0eg9u3fLOwQaHfdmL2n13FIrEwiTh8LbYT10sUZXCQqFzS62P4XNL4diw2T+kPmN9OpHjh63vUZRCpdl0Fvz/D9bAS7RvOOuHK67e9eu3+C++nqZaehbbpqpq0jH6CCrPDr8Y9MKA++Slv/8yyVmJvVR9uj+fXtH7/Fi/4dc3sDjUwdr0IdCMnTSysaZzG+kVGEDTLY5rkPNih8FIgGA0KTjSHPqGrr6COVlUpIKYQS2sZPm8nHbqbptBuk77kosNE7aMcwtSf+emQjYvaLtwSNeeIHlhz+41a4w/eLLxRa5iW1+y6wbLCntEJ3uGpHqCLVEl2bwMrtIoe9vcY8plUlJ9+Ag0pg+lID4IHWf2RSzUf500Vdu97597pPPFrkTylw99drJJkh2mp+nXfxRePuNL97GH8KZeWPl8SlpaRuO4evWrZ9rvywSxk942MChLlIgEgDiL4hx4WSUU8IkBgVYYj2ox0lnmGaiEGGwcblkzu7XkgcjqaAJiT/hKJ0QCh8hIBYIXEq0seTSu0IlxAFWtuRNOeEQjVoLV4hOcqVamTe5IR0TJ4zVUXuJG6xLLxZ+/LmlLXn62RfccZlDv1RoQ1wzY7L01V3CZG0j1CF+UR6BdjBoUzIAzWsVh/WlboxcunylCeOoUSPcAz+8U5vgXoVQjr4jFghBzod3VCn2AZiY7zZKxFVc532Kfd3oI8xGfehVKi+VT4YIAvRIzgY/IcRCs2DB1KytPWfhDUQyJBUEklggLuALwlMUPBg2AuBzYjgA9isBMwCjbwsYLtCefiNQC5haXOAaO78C44TaLblFgANwNURbdrb6CWFF4/J3VMk+4p0PlHo4Dppr9Mhh5oUZP260ZZNe9NXX7mOlKMccCrwz9Obc9KmT3c8ee9D2AWSCKG5TH4YCPIUQ5vvWEvCpCpNgZSGVyhDd+zt21PDGr0UaFzXmJObZ6NQQ8RCVxr+tvlY+6OBZzoVtCiET6wuK2qrhCRN0MHexd//iJ8FfJEGwJiJLJADE6LSXJ8J3+YGuXLFJ8dHM1CNvDbEeeEF8ComxwqRSvmOgPS5c8Au/hRMjHOrUDa8hsgE9rhtbMFF27t5jmh7XIwddaP3W0jY1ysV/VloYu7tVK8YMtDaajg3u7Ouv04HVJr3csk6XVpx2VeHFGnWI4/rk5XeyQOQW5sJWi8Z8a1XFhpY+5eYbZrg7b73RVp1IcQkP9gZkg4aPqgWnCVTOIGF8kq85Q9g0/MHqk2QdMBTkLJPmR1x8g+HQ+kWlQRh73XTkQN3wT4IxCerz5Q34rn1ZifF4IxMIpNIEIgGKLyOHYEPslhZNGD5J+C0ipoUpQKwJzskZjlq5OIyQR6Vnjx5u79597h1lccOPj729fOUqEwAY6iNp9PWbNtumdYY0Ofd8ketn6YpV0jDnHJddY+7xDm+NQo67yxPEHiEkOmCYkmtCmRqT5cDa6E+1tXuB6zRynJFXrl6rizLWmiBwYUalNsi2VsXGy8W7Uf85D4CpKMGkzGniZfbE2wT84Td3tPNl/HAMhCqXn6IVIKzU3H9zOzyXYx84eNBt3bbd7dAVp7y/gIaFCfDNvzTvdWk23SOsa047dehofveTp0+5F+cvcBs2bjEBwMamfZE01NRrJlkdXAWYVYFpFZhQTdGbpR1zwPYCpkeDmghO8LzxRjzs6zOFUD/74jxtjE8Y7FyKzYEbsMQFJazfnH9nApAz+ySeeuDeO8wE+UhXD/FGFleXsvkj+xpKFJOCWJ72EgBi9hEMzJ4Rw4ZIcA5bPA91Blb0l10+0t1/z+2WvpxbW8YraxvLNrY7G/t8pa0u4Rg/ZpTEhcsv+hvzhvW6KrbomokT7PVIXK+5G3HqcXbAuQGmnDG84GOjPUDxRghCVuop0EITFVsY679o7p9OKwX65q073ObtO7QfOGHpxtnDhAWi8TcbT3LzsxwHPvl9JjSYQl3Lyy3IrXOnDvY9oRCcDHOXF2YSP/kYGNPm0OGjZrp07tTRNrmhF4W2h/Udq0iX8k72XjACGC/rNm422M9I84cFGEdKQPPlGwrrNMffmQA0x1nPcI4o4OeOiapnHzIKXFkUyATgyprPDJuUFMgEICXBsupXFgUiLxDuNjZW+Kp9fcSEHOBf5qAjdyOWj0z0zzhs6HzccezPOYJnjwdMvmPQzrd+gIN//wGddOWR4PHxQ7NZxo2KRwfa+uLAOL6ZJ0I6qXuNQe6hfNRv+IzXNnHE+tIpGiMlf+Bi8cUj5MGAtslIhPzk23+EgwjE3EGnaAXA83BKp5XEV1AxqVCFWI80OXs4HCIWA2+IT8H3flpejzCmxKcN+XeI1eGusKQS4pAmtwy5aE7q0IvkWH50CmKH0tCJeCajkymYJCw43j/vTomuXFroe4s9MTfQibY+JcgbVW15o7zwVqeV4g/mz3eMkD/47cGCBgv9+8w1OFIvoBOn5AHe0QqAZgqkIlnyQoJZff3h24Ix0P5Inm9hDNNSng2o31LUQ+P6FKIhL+h2OR/NTH+sXAYP6tajUCtcIf1a1I/hS9lw7oJV1W8UVqOASn71mbRU/CEFCTxBpLDfGMYfpplT1veYB6rQK3jzEzJh5gb1JF5WLYof+16TAtsmLl6RCfS9xioD/i9CgTjj/EUGvAyD5OKQCcBlIHLW5feHApkAfH/mKoP0MlAgE4DLQNSsy+8PBTIB+P7MVQbpZaBAJgCXgahZl98fCmQC8P2ZqwzSy0CB6CDsMvSddZlAAdIpErPPOwG8iBPPDJHQNNXXvCNcXcO7wcrZr3eYeR/Z9+Av1UDfw8qRAHBAEJ4/+xCH42rCJ3hFijQTTCLteF3PwimIZdGL1GEC16ZoQ33SARL2YC9Fx/qBQY4r3w1vX/GWE29dBekyGnpzOZpnTDKxNVWALYQzXic81vfBmXYRnTjljHdU4HPuGNydxTu7y1autneOufiCK1GH6HVM6AWjMpIvTNS2Vzb1O7fN1u07lahruduzd78jjGPy1eP0M9a1q7tdMrc+fTVVcvHIV4+5PK5kXbxQxBtp7ZS5GuGGP2gP7rwsFBCyvgfgYH7A3d51DohQXyH2iRNp6gZ3igU8GH5NwmFeVKJOvpJLp0gAiPUgXoXX9ZLyAoHkoiXLlfdmiwE7Tq/5jRkZpOTgJfJPvvhKeTAPWcbiCUoPQvYD0vbt0euF3EvVTa/19erR3TIbMEFLlq3US+VVNjlDBg9wZ41B1tnz7bt2K7fmWeXQ7OJGjhhquTK7duncALejemPrs0WL3b79By3YTrQ0RoBFITrv13Kj4tRrJrr+/XpHL0ZDY2JiqEOeGEIckgqCT7wRRDY6JTSgb2KZCAsIX1Hktvf/97tn3FdLllqcTFfhRo6gCiXBRQAYA2Ylc0PuS9z5hiPWhrgegsLCfDfUIxvFy6+95V5R0l4SZ8E0MNeIoYP0ubXRyhdvggara2qlgIqa5A/o/6WE7RsJN2+0ke6lV8/ubroSdo3W3MGUnytNDHNOvtSwEJfDa6BTlS+VOKjlSi7AjZgIRVxAw7ks79zJro/dtWefFImyaYu+FIL7wGugLhscNXyI5VONC0JEp1a6ikn16DsSANPcIo4PExw+csy98Orr7pPPvrT3ZUntTQ7MMr1zeuz4STdvwTtu8dLl7ialBumtRE0IwJcSmFdef9sdOnJE77SOt0xo5LP/Qsmd/uUPcy21X3slf+3Xt7eYeYl7eu5LboUujcZEIJ4EuMiUTBblXAE4qHt0X57/lgi/xlYgEIVYFrcjzUOUIekJu0hwyJ4cZyoEH63ge2UQfTFJ1ofaiYpG/Kb+Q5mT8Il4oNZK10L9L8QE0OeYUq/MnD7Vrj6tEO3C1yOJHkUIUEauqKme65+Da+05aUJNZ3EMph0797gP9V7zdr3YP3LEMCmY8e5qKaRSMRvakx9fvMkHdEZ4xJN71UPgbCV7/pXX3auvv+V2K1Ujy2MLxVnRP8rvKglCmVbxN9/9wC386BPLtBGu5iiozh07uq56bxkFSQr5/fv3G60salXf0xdxZKzyFXrXmnyoXy1d4Z5+9kV7+Z93nanD6tK7Vy93xy03ufvuvk15l7pBcivQCcXiWmil0dutPI4EAO3QoWWpTVRc6uJIhp/JQIz2P3r0qGVhW7VmnWlfGBpmJ1/9aUnw9h27HHnyEa4V0gofffq5Xhg/Im1f6W65cYa0Xi/HJO0Tsu3K2hkRjkmbvzT/TTHJEnunduZ1U113EcbsZeW6QYvmFrT7GL2bi5l0RgRcoZSEe7Xkd1TOnVEjhljunU56L5dktPEJhDDkBQrDgnP7zfc3E1rkSSfaI4RlMgEgNp+ZBPKCsuJBp/vvvsPNFi0sa4MmmIJWZj58lBH1EZz2YupAY9avYnuUy+josWMWjj1l8kT38588Ysl4WWUQemDxHQNztkOpcupIEeXjj8VLV9pKs1XvUI+SNYBFwH6DlYAX9O0uBMF6WnOPlcAKOlrZ7NDmAsTmjkTBMPxkKcjD4pOTJ0/LTPzGkgz06N7djR090oSXVQU+w5xiZTspXrtm0jDLird67Tq3eo1WILVntZ81c7rBYXRSqHgHchtJGYU4RALA5LQUkkkFovHSNS9mk94PgEketWXbDgE4QkzX3rR0iVIEoplZykjLAaBE4ZlwaGmGEFW6EpMJAhESxJLxYOeuPZZOhE3bJNmrv3pqjmVUow/2AzBxbunerYub8/D9tpcgK/N/+/t/klAdcD1FqDmPPqDJGKaJLrIleZuEEhOup0ywao2PbRxmX0Yj8/dhaayzqtNRWmnQgH42gWh8YNitZRe4ybLA6rRDJtpxrXpMCpkeSHMOjdB60ITVEobjexQE9DikW2DOS8sjjHzeKg19Vc+eekm+nVbCajMRuEOA1am3VizyDtEvhawT3DHAfoiU65gdvCjPsg9ThOWk7HBoyQYYUxCBQ3EBCynZYejdGmO7FBAv/dOWzHXdlYkazUyJxtLYvJy/74DGEny5Y1EXpcML/yije39wm7vnjtn2mfkQOVyXzp1Nu4eMV665Zs7Gjh6u1kGELUqKvUGf3j1NaDdu2e7+6//a7w6Jj/oLtqckwMCIcgB360uaBWG6ddb19kPOpn/459+6XZqX5dpjTZ4wLhIAFF7uJY2RAICET4Ggq9dtMJNl+LAhtoxv1USTKIq0H9j2ZDpGG0PYI2Jwm3QRByYiExqJpo4eO6EV5JjaB7lrBmgCITL2vN0jjO0giNH4TD7ZDBCQfAUCYOJQqIvmoWAPon2uktmEBob5/zj3ZZvIcdIm+w8ecmuEy3133+74+813F9q+47Bghbk7Cp6Z06e4h+690/UV8x4Wsz6jfDvYsFxlikCuXbfRcBzQv597as7DZt4dlSC98trbMj8+NyUA0w0ZPNA9eN9dboUmBdMOW7zF+RbuxXlvuEVfLXU/fkTMIK258OPP3BuCY/vOXbYX6qd9wf333OFunDFFTNrefaaM0u+8/6ErV8aJflIay1asNsXyt7/4qVa7oYYnpPvki8W6NOMDMw8Yf5FMTfZTd8y+0d19+2zhftDGXrr8G9PICMDVymR93113mP0M3aOxxLzcObBMycFgun/LWLKxQ2aG1tHGVd/DaCVa3ZizeBYKzJuwABOKC5M2t4Tzd0z0pR5CgecK07e3slvkKyhWhILVo2OHDmb2HTx0xBKT5asfPkstAGxktyjjGZsiPAqbtKHbIcbi3iqWOwQAjdVJVwPBIHuloViO0A6dxFBoCMudI/OJZwgIhERoSEvILShdyGmzrbVd+PDCqwssr+YIpR7ne1aqQiW0/6mDJsZmNxWkdse09C5a/LWZbzAhq1etzCoElRVj1Zr1tnHsIRgOHDhkS+k+4TtMzItmZKn9cskyMfEqY+RemoxKeTv2KIscCbSGKT8nPzD0My+8Ysw/bMhgKYNSuy/ggARus5QFqyFMil2NsHF/LSvicmnR3z3zglKabFOO0RE2eWSaxmTEXCSn0MZNW93Hny6yjX25GJPx+4o5yUAX4gneO2WH75fGNkFT/6dkiu7Zc96YnfmY+/Jr7tX5b5j5dJVsZlYLzNoabXT/9udzbLXauKVuLMFZLuarFP69tVknT1JuMaUnjw+rxIK33pOya+VmTL3G5jWf2Qpcu0U3lB7wsqLiMbJY/brOMZ31lRXqGNFyB+Zv4Wd8od+YTayc8BQrRXwTnK9pagFAY8Is7PBHa2MFol+KqbD3eY6HgY1suRDboonk5pRdu/eZW4yJQgDYvSMsaGBWAZ6R5AnJxxuCS5DJ2ymNNffFV40xb5Itd/MN00XQPoZYPmQSn4ko2MuYN8B/w3XT3FUyMa6RIJOjh5tYcEmy51ixaq0tpfv27zPTgaUfU8I2YpoYhPGRB+41jfubPzzjNm/easyFmbRe2eFgbC7IwwTDA4LwYHr0lVMAs+DTz7+0yX5Aq8uEsaNEt8Hu99r4bxbTDR86xP27v3nC8gz9j//zT27j5i2i727L6wODgEO13kpj1eH+AXAg7w/wUZj8G3SjPKvrc1qx9mterp18tYOG5DHCjOMCbmC67+47tWG80VadN95+z3382Rdu9k0zbNPKy0I2VnWl8hv1tbHQwIEWbqiIrp00wcZ4/8NP5MX5xuYdE4S+piuJL4weFuBj3v/03CtSih2kiC6I9ve6afLShdo/rJv0G5xxk2+TAmLF+liOmYOHDhlPVchcwlQsVFIJAFof+x+7vZds1u6yx9nBszQfVMpATAM8PLgszexYvtKEYptsT7QGzE02NdJ6k2yW5RFtiFnUTX1hykDwH8qGbKXPb2sJX7dho0MLbpR2QiC4MZ0VJkmyCyGNiYVmfvzh+8z3HtZlOWZVOiWtis2OOYXXoUoaGK0SFrQRzD1OzITAvCLPxxYl0UIT6T/XQfsgNrX4wpkYLrBjH0Lq9P5SAm8KLzaf4DBpwlgx5jRbLbeJftCJlZKNIrY9AofZiUvTTEONwPglJW1tZcR845YYK3U8yS9WLcacL/jQpJiYKBA8YYvlPTmiFZh92oxp17jrp19r+55PP8d9fVCOCearzrVoYxW7W5XdGq8KWppiqNqn4D/2BU/8+CEzfT+VG3yX9oUL3npH5vJ6Mftx3YFws3nzgrYthFuVuUuhASvxzGnXurMT62kc67rgR+BgT/eWzMYPZf/vloMBJTRRHi8slIg2TfSSSgAwFbYo3yW3kbA2fambUGq0IWRi2GTh38bsIUc9TIrdtl+mxDYt+ySV7SFXKXYf+4P9Mo3QBEwumqxreSdjfuBEmz0ujYBWXPjRZ+6Djz8zm27+m++4wbK96Se+4WsCtyYfs6rCoKEbjopsGj8QAXHBYusDG5t4SrAK163F9kTPZBbwxJZm/TbeE02oPWXyBDt8QnDnSgOzT7h99k1i9KmmAGxpt36CdOB8RBFgBtHFOt019jttrM+erTVnA6sVyzkwhYWVAOELXjGtfx5+z++4OcimG1gRaDb5XMPEyguD8CI9zgXGYW7x3GGihAUmLbGxgsPO8Hn8N7CxkmHKcC7EvKHo1m/Y5Oa+NN8Nk2XAvglKAUcnORjuvPVmc35gpU4cP9q8X/E+/T4HuIMreAzSGPDenXKDkgnP9hAFOkolAFzFg9cDbbhj5y73r08/p64v2FKNrY2WRoNir/bv38cYHc/Kej2H0dmQVvTta5sUvCRogfPy27KzZ+MSL0zOTGknkMBjgL93z969tmklee23EQAbx5i1fkR8yr/5/bOGQ38t953lngs1bn0tj0+aTFyAuBw5G0EbfqTNMCsBKx7ZpOOMHPaI/9r2K6Inh0LQqq1MQvKLojDwMCEEUdE4wf4meuL5AYapF5iADHKHauWlAFv4Yw/4T2OZwOt3UuGc5QFt2tmv/O9//LUpr207dpgZySqBDCMAmJCsCpMmjLNnCFk+uiSNR19YC7eL4Tlw69C+zDxngacrRq8mOkquEWu4QRswNodsaoZqWe8iTwSaCO/KNvl/WcLZTGHzYuuymWUTeeLEKTNvsAN79Ogq5Mtk6263pZlJxNMRegvQjmgfJBeisPNnKcdG371bSzMrTswciYF30R9hdG5fZBPICvWkvDmYcP/lf/5frQwnU/eLeTN18kSzmzmf+M3vtUfQ6kj6dA6i8k00ZiRCj007VObLL554PLC1xXQwJxvpJG3mAygrBjlFW2sOMbFYddCebF5RUtjgmDmhQPj0SR1CUYDdwl8EL2YfDP+ZFACmM5t05po6QQn2U4VWsLqKBX+xDrMBZqxrJ40zGhZskPOltwBgZ30jLwlmED7dOY/8SKEFV9sS/OyLr8m9+KJsvaOm7adPmWT7A0yVTdocYv4MHTzIbP2e8qZwefTJk6uM4Nik/XUKGtpq2L6YIRzUhFqejQ02K2YLPnuW/ktZGItNLoLQRje1lIoR8bwwqR5KLwaKJlf/Vq5aZ9cilXfuaPseDuTQVNABZstXEHBOgxfJDEEQuVjjguChPm7jQcoSzeb8UhTONlBemzQOXi0U05eLl9nmnAMnzmQwX9OUtes32bkH+xxcoFU6x8FdDuN3EP4ceBGqERiOQc8iySUrCNfF9BcJgGnec7r3StoLqcwtpAnHnsODUSGbnTtwOUziiH+47Ds2t/sPHLCNDW7OCplA3btqk6wJZOJZxtmRcys67jtKzRkOlLqa6xOfPQUBeE4uOvYaMCL6go0ZbrxhMofMz6tNZlMFJuZgjVUEUw3GCwufeWbfqR5/E6aAVsKzAYw7d+3SvbsvGzFxW2I7h6YQk8fqE29P93zPM37z9wcyeT6Sq5J7fTk02yDHAQzA8X2pTlOtD8F4QRdOhPCh3a/XmcPXchysWbve/VqrBp4xmL9UNz/+myfn2MY7XCHBySZdv0M80IRxjYrZEtCBADQSYQVl5LChZnrgvn1XZwp49li5KdOnXGO2OuYW5intaYcWh3b0Y+aK1a7/b7Uu9v6DzFQu42AvwUqNV5ALUabJC8SmnM/0FwZShriHvdA3G2JwgA8D2gb1oVlceGjD3ITzCV2SCoqO+uZJ034BcywSgFp1dloX0nFpWknLIFAo3iEuM04lJ2l3TX56bCyC5zjcGihh4L6qztJ42K5wLZpg0oQxCoDbZxs5GJd4DwLJuEdr15495grj8ogeMc3G6TJ59tkjIAxnFeOCPT5OGywOcCbLa4KGaaqwyA4cWOEmqi0bZk5Xw4KZxWk1zMaEACM4YJJcp/0GJ6XE6HDKzcac4Dlcifi4EVBiaAjIIyZmxPChtmox2aPkDmYyB2tcYOPQCGEi5IFVBHNq+pTJtjkulfeGPQ+n3DCShQLUATh54jitrA+41+WO5HCRPRf99+nTy/DALUnfE3VD/AXBzGoIo8A4p8VwrTUXpSX1oc7MxfixY4K9l1YXvGwUVqZ777rNGHGVQlSgM3E4Y0eNcA/psM5cquq/fiyn78tdjZi3WLgXt9YEwz2xwuoFXmulJI/pkBMmw2U9Uvuhx350j62EMD7m3f6D47U/6qoVvqEigzlJpgUO0AarYIxgYr6gOyZivHDSP27MKBMqwijyKe54fYSExFjFEu62xcGeI8oLhCYMohx1B5YGzLVTYQQLA9CS1k1mS08tlcgc9YjW5Dvy4zNhMAzmC77+vYrzQQuyfOM2hXCYUXhYWB4RpF7SdLSjACTH+7hUOSfg9BDGHSjiYufBhIVKpRDcLm3GikE7NuQh4dBOxB7h5cBVi6sTHGBe7ptCKNdoKacM0uaTSUTwzXslBkALAtcRMUy5zDjwhAE5YeUAhtNoNr644XAl7hAc2Nls+PBo8R2TFJyDHAnGkcciNPV4gBt085bgXgJOozndZBw8a9jnaNV92odRCK3AhYyGJuIUWOLRoMxZcIdwtSkv5iDcRzDXHEQhaHjugHG4DvE4yAzrMA/sDSgIRdu2WsG1dyCcIJc/MCHBFyWC8moh2mFaDRpQYQGItGOF3CmlgBeKWzwRmrifHh5EYTAX7CWgHecfzAHnBewr4+cEhHIQusLKhxnN2ROC01RBURA127qV6KQxwCESABpByIZy3VRX9c9hnlxi1H/b+NPlrt94xOQnQgG5zMolokDaOY4PezE8GG+f+DlngAYCkNg4q5BR4AqjQNPrxRWGaIZORoF8FMgEIB9VsmfNhgKZADSbqc4QzUeBTADyUSV71mwokAlAs5nqDNF8FMgEIB9VsmfNhgKZADSbqc4QzUeBSAA4vOCkjN++hdgKfnwLfXPS6zsGPQMTMS++JRrDswF9G0ye9ek/NZ0YIwWdjK6XmU7p8Q5O6X3nDnJC17S0TcMf0CnNXET8FJuLSACIBTpll7+luCRPIQ4cwQOETyGfDrEYhBT4FIhBfFKVQgL47FOqdZROPAlBVUkFOhBqwSV5hbLKxfvhuD7NJXlMUqXG4A0rXxwI5gvolIwDsEH/8PI3X2VRA50UFuCLN2EMpzQX3pcDCi7m4VRK2oIHNI7xaJz8DT4TNsFlgr78Z3QSj8cvLPz/3s7uiKs3hwcAAAAASUVORK5CYII=;" parent="1" vertex="1">
          <mxGeometry x="498.8" y="20" width="121.9" height="80" as="geometry" />
        </mxCell>
        <mxCell id="xU7Hf9NUd1Yovvoh3ul6-42" style="edgeStyle=orthogonalEdgeStyle;rounded=0;orthogonalLoop=1;jettySize=auto;html=1;entryX=0.5;entryY=0;entryDx=0;entryDy=0;entryPerimeter=0;" parent="1" source="xU7Hf9NUd1Yovvoh3ul6-44" target="xU7Hf9NUd1Yovvoh3ul6-47" edge="1">
          <mxGeometry relative="1" as="geometry" />
        </mxCell>
        <mxCell id="xU7Hf9NUd1Yovvoh3ul6-43" value="XML" style="edgeLabel;html=1;align=center;verticalAlign=middle;resizable=0;points=[];" parent="xU7Hf9NUd1Yovvoh3ul6-42" vertex="1" connectable="0">
          <mxGeometry x="-0.0833" y="1" relative="1" as="geometry">
            <mxPoint as="offset" />
          </mxGeometry>
        </mxCell>
        <mxCell id="xU7Hf9NUd1Yovvoh3ul6-66" style="edgeStyle=orthogonalEdgeStyle;rounded=0;orthogonalLoop=1;jettySize=auto;html=1;" parent="1" source="xU7Hf9NUd1Yovvoh3ul6-44" target="xU7Hf9NUd1Yovvoh3ul6-57" edge="1">
          <mxGeometry relative="1" as="geometry" />
        </mxCell>
        <mxCell id="xU7Hf9NUd1Yovvoh3ul6-67" value=".trace" style="edgeLabel;html=1;align=center;verticalAlign=middle;resizable=0;points=[];" parent="xU7Hf9NUd1Yovvoh3ul6-66" vertex="1" connectable="0">
          <mxGeometry x="0.2603" y="2" relative="1" as="geometry">
            <mxPoint as="offset" />
          </mxGeometry>
        </mxCell>
        <mxCell id="xU7Hf9NUd1Yovvoh3ul6-44" value="nifi-ingestion-replica" style="outlineConnect=0;fontColor=#232F3E;gradientColor=#60A337;gradientDirection=north;fillColor=#277116;strokeColor=#ffffff;dashed=0;verticalLabelPosition=bottom;verticalAlign=top;align=center;html=1;fontSize=12;fontStyle=0;aspect=fixed;shape=mxgraph.aws4.resourceIcon;resIcon=mxgraph.aws4.s3;" parent="1" vertex="1">
          <mxGeometry x="508" y="1450" width="78" height="78" as="geometry" />
        </mxCell>
        <mxCell id="xU7Hf9NUd1Yovvoh3ul6-45" value="nifi" style="edgeStyle=orthogonalEdgeStyle;rounded=0;orthogonalLoop=1;jettySize=auto;html=1;" parent="1" source="xU7Hf9NUd1Yovvoh3ul6-46" target="xU7Hf9NUd1Yovvoh3ul6-44" edge="1">
          <mxGeometry relative="1" as="geometry" />
        </mxCell>
        <mxCell id="xU7Hf9NUd1Yovvoh3ul6-46" value="production + dev&#xa;.xml, .trace" style="shape=image;verticalLabelPosition=bottom;labelBackgroundColor=#ffffff;verticalAlign=top;aspect=fixed;imageAspect=0;image=https://www.selectscience.net/images/products/6416_SYFT-Voice200UltraV3.jpg;" parent="1" vertex="1">
          <mxGeometry x="500" y="1270" width="94" height="94" as="geometry" />
        </mxCell>
        <mxCell id="xU7Hf9NUd1Yovvoh3ul6-47" value="&lt;a href=&quot;https://ap-southeast-2.console.aws.amazon.com/lambda/home?region=ap-southeast-2#/functions/datalake-production-xml-parser-batch&quot; style=&quot;background-color: transparent ; text-decoration: none ; font-family: &amp;quot;amazon ember&amp;quot; , &amp;quot;helvetica neue&amp;quot; , &amp;quot;roboto&amp;quot; , &amp;quot;arial&amp;quot; , sans-serif ; font-size: 14px&quot;&gt;datalake-production-xml-parser-batch&lt;/a&gt;" style="outlineConnect=0;dashed=0;verticalLabelPosition=bottom;verticalAlign=top;align=center;html=1;shape=mxgraph.aws3.lambda_function;fillColor=#F58534;gradientColor=none;" parent="1" vertex="1">
          <mxGeometry x="364.5" y="1600" width="69" height="72" as="geometry" />
        </mxCell>
        <mxCell id="xU7Hf9NUd1Yovvoh3ul6-48" value="&lt;span style=&quot;color: rgb(0 , 0 , 0) ; font-family: &amp;#34;helvetica neue&amp;#34; , &amp;#34;roboto&amp;#34; , &amp;#34;arial&amp;#34; , sans-serif ; font-size: 14px ; text-align: left ; background-color: rgb(237 , 255 , 255)&quot;&gt;production-xml-partition-parquet&lt;/span&gt;" style="outlineConnect=0;fontColor=#232F3E;gradientColor=#945DF2;gradientDirection=north;fillColor=#5A30B5;strokeColor=#ffffff;dashed=0;verticalLabelPosition=bottom;verticalAlign=top;align=center;html=1;fontSize=12;fontStyle=0;aspect=fixed;shape=mxgraph.aws4.resourceIcon;resIcon=mxgraph.aws4.glue;" parent="1" vertex="1">
          <mxGeometry x="355.5" y="1840" width="78" height="78" as="geometry" />
        </mxCell>
        <mxCell id="xU7Hf9NUd1Yovvoh3ul6-49" value="syft-query-results-bucket/production/{table}" style="outlineConnect=0;fontColor=#232F3E;gradientColor=#60A337;gradientDirection=north;fillColor=#277116;strokeColor=#ffffff;dashed=0;verticalLabelPosition=bottom;verticalAlign=top;align=center;html=1;fontSize=12;fontStyle=0;aspect=fixed;shape=mxgraph.aws4.resourceIcon;resIcon=mxgraph.aws4.s3;" parent="1" vertex="1">
          <mxGeometry x="355.5" y="1720" width="78" height="78" as="geometry" />
        </mxCell>
        <mxCell id="xU7Hf9NUd1Yovvoh3ul6-50" value="" style="endArrow=classic;html=1;" parent="1" source="xU7Hf9NUd1Yovvoh3ul6-47" target="xU7Hf9NUd1Yovvoh3ul6-49" edge="1">
          <mxGeometry width="50" height="50" relative="1" as="geometry">
            <mxPoint x="574.5" y="1840" as="sourcePoint" />
            <mxPoint x="624.5" y="1790" as="targetPoint" />
          </mxGeometry>
        </mxCell>
        <mxCell id="xU7Hf9NUd1Yovvoh3ul6-51" value="" style="endArrow=classic;html=1;" parent="1" source="xU7Hf9NUd1Yovvoh3ul6-49" target="xU7Hf9NUd1Yovvoh3ul6-48" edge="1">
          <mxGeometry width="50" height="50" relative="1" as="geometry">
            <mxPoint x="574.5" y="1840" as="sourcePoint" />
            <mxPoint x="624.5" y="1790" as="targetPoint" />
          </mxGeometry>
        </mxCell>
        <mxCell id="xU7Hf9NUd1Yovvoh3ul6-52" style="edgeStyle=orthogonalEdgeStyle;rounded=0;orthogonalLoop=1;jettySize=auto;html=1;" parent="1" source="xU7Hf9NUd1Yovvoh3ul6-53" target="xU7Hf9NUd1Yovvoh3ul6-55" edge="1">
          <mxGeometry relative="1" as="geometry" />
        </mxCell>
        <mxCell id="xU7Hf9NUd1Yovvoh3ul6-53" value="syft-query-results-bucket/production/{table}-partitioned-parquet" style="outlineConnect=0;fontColor=#232F3E;gradientColor=#60A337;gradientDirection=north;fillColor=#277116;strokeColor=#ffffff;dashed=0;verticalLabelPosition=bottom;verticalAlign=top;align=center;html=1;fontSize=12;fontStyle=0;aspect=fixed;shape=mxgraph.aws4.resourceIcon;resIcon=mxgraph.aws4.s3;" parent="1" vertex="1">
          <mxGeometry x="351" y="1977" width="78" height="78" as="geometry" />
        </mxCell>
        <mxCell id="xU7Hf9NUd1Yovvoh3ul6-54" value="" style="endArrow=classic;html=1;fontColor=#232F3E;" parent="1" source="xU7Hf9NUd1Yovvoh3ul6-48" target="xU7Hf9NUd1Yovvoh3ul6-53" edge="1">
          <mxGeometry width="50" height="50" relative="1" as="geometry">
            <mxPoint x="574.5" y="1990" as="sourcePoint" />
            <mxPoint x="624.5" y="1940" as="targetPoint" />
          </mxGeometry>
        </mxCell>
        <mxCell id="xU7Hf9NUd1Yovvoh3ul6-55" value="instrument_processed.{table}_partitioned" style="outlineConnect=0;fontColor=#232F3E;gradientColor=#945DF2;gradientDirection=north;fillColor=#5A30B5;strokeColor=#ffffff;dashed=0;verticalLabelPosition=bottom;verticalAlign=top;align=center;html=1;fontSize=12;fontStyle=0;aspect=fixed;shape=mxgraph.aws4.resourceIcon;resIcon=mxgraph.aws4.athena;" parent="1" vertex="1">
          <mxGeometry x="351" y="2138" width="78" height="78" as="geometry" />
        </mxCell>
        <mxCell id="xU7Hf9NUd1Yovvoh3ul6-57" value="&lt;a href=&quot;https://ap-southeast-2.console.aws.amazon.com/lambda/home?region=ap-southeast-2#/functions/instrument-trace-production-event&quot; style=&quot;text-align: left ; background-color: transparent ; text-decoration: none ; font-family: &amp;#34;amazon ember&amp;#34; , &amp;#34;helvetica neue&amp;#34; , &amp;#34;roboto&amp;#34; , &amp;#34;arial&amp;#34; , sans-serif ; font-size: 14px&quot;&gt;instrument-trace-production-event&lt;/a&gt;" style="outlineConnect=0;dashed=0;verticalLabelPosition=bottom;verticalAlign=top;align=center;html=1;shape=mxgraph.aws3.lambda_function;fillColor=#F58534;gradientColor=none;" parent="1" vertex="1">
          <mxGeometry x="669.5" y="1590" width="69" height="72" as="geometry" />
        </mxCell>
        <mxCell id="xU7Hf9NUd1Yovvoh3ul6-69" style="edgeStyle=orthogonalEdgeStyle;rounded=0;orthogonalLoop=1;jettySize=auto;html=1;" parent="1" source="xU7Hf9NUd1Yovvoh3ul6-58" target="xU7Hf9NUd1Yovvoh3ul6-68" edge="1">
          <mxGeometry relative="1" as="geometry" />
        </mxCell>
        <mxCell id="xU7Hf9NUd1Yovvoh3ul6-58" value="&lt;span style=&quot;color: rgb(0 , 0 , 0) ; font-family: &amp;#34;helvetica neue&amp;#34; , &amp;#34;roboto&amp;#34; , &amp;#34;arial&amp;#34; , sans-serif ; font-size: 14px ; text-align: left ; background-color: rgb(237 , 255 , 255)&quot;&gt;trace-to-redshift&lt;/span&gt;" style="outlineConnect=0;fontColor=#232F3E;gradientColor=#945DF2;gradientDirection=north;fillColor=#5A30B5;strokeColor=#ffffff;dashed=0;verticalLabelPosition=bottom;verticalAlign=top;align=center;html=1;fontSize=12;fontStyle=0;aspect=fixed;shape=mxgraph.aws4.resourceIcon;resIcon=mxgraph.aws4.glue;" parent="1" vertex="1">
          <mxGeometry x="660.5" y="1830" width="78" height="78" as="geometry" />
        </mxCell>
        <mxCell id="xU7Hf9NUd1Yovvoh3ul6-59" value="syft-query-results-bucket/production/trace" style="outlineConnect=0;fontColor=#232F3E;gradientColor=#60A337;gradientDirection=north;fillColor=#277116;strokeColor=#ffffff;dashed=0;verticalLabelPosition=bottom;verticalAlign=top;align=center;html=1;fontSize=12;fontStyle=0;aspect=fixed;shape=mxgraph.aws4.resourceIcon;resIcon=mxgraph.aws4.s3;" parent="1" vertex="1">
          <mxGeometry x="660.5" y="1710" width="78" height="78" as="geometry" />
        </mxCell>
        <mxCell id="xU7Hf9NUd1Yovvoh3ul6-60" value="" style="endArrow=classic;html=1;" parent="1" source="xU7Hf9NUd1Yovvoh3ul6-57" target="xU7Hf9NUd1Yovvoh3ul6-59" edge="1">
          <mxGeometry width="50" height="50" relative="1" as="geometry">
            <mxPoint x="879.5" y="1830" as="sourcePoint" />
            <mxPoint x="929.5" y="1780" as="targetPoint" />
          </mxGeometry>
        </mxCell>
        <mxCell id="xU7Hf9NUd1Yovvoh3ul6-61" value="" style="endArrow=classic;html=1;" parent="1" source="xU7Hf9NUd1Yovvoh3ul6-59" target="xU7Hf9NUd1Yovvoh3ul6-58" edge="1">
          <mxGeometry width="50" height="50" relative="1" as="geometry">
            <mxPoint x="879.5" y="1830" as="sourcePoint" />
            <mxPoint x="929.5" y="1780" as="targetPoint" />
          </mxGeometry>
        </mxCell>
        <mxCell id="xU7Hf9NUd1Yovvoh3ul6-68" value="trace tables&lt;br&gt;used in http://trace.dashboard.dev.syft.digital/main" style="outlineConnect=0;fontColor=#232F3E;gradientColor=#945DF2;gradientDirection=north;fillColor=#5A30B5;strokeColor=#ffffff;dashed=0;verticalLabelPosition=bottom;verticalAlign=top;align=center;html=1;fontSize=12;fontStyle=0;aspect=fixed;shape=mxgraph.aws4.resourceIcon;resIcon=mxgraph.aws4.redshift;" parent="1" vertex="1">
          <mxGeometry x="660.5" y="1980" width="78" height="78" as="geometry" />
        </mxCell>
        <mxCell id="xU7Hf9NUd1Yovvoh3ul6-72" value="&lt;font style=&quot;font-size: 19px;&quot;&gt;Customer data&lt;/font&gt;" style="text;html=1;strokeColor=none;fillColor=none;align=center;verticalAlign=middle;whiteSpace=wrap;rounded=0;dashed=1;labelBackgroundColor=none;opacity=60;" parent="1" vertex="1">
          <mxGeometry x="640" y="10" width="220" height="40" as="geometry" />
        </mxCell>
        <mxCell id="xU7Hf9NUd1Yovvoh3ul6-75" value="&lt;font style=&quot;font-size: 19px&quot;&gt;Internal data&lt;/font&gt;" style="text;html=1;strokeColor=none;fillColor=none;align=center;verticalAlign=middle;whiteSpace=wrap;rounded=0;dashed=1;labelBackgroundColor=none;opacity=60;" parent="1" vertex="1">
          <mxGeometry x="630.25" y="1240" width="220" height="40" as="geometry" />
        </mxCell>
      </root>
    </mxGraphModel>
  </diagram>
</mxfile>
